<svg xmlns="http://www.w3.org/2000/svg" viewBox="0 0 1024 1024">
  <defs>
    <linearGradient id="shell" x1="170" y1="80" x2="850" y2="940" gradientUnits="userSpaceOnUse">
      <stop offset="0" stop-color="#11100d"/>
      <stop offset="0.56" stop-color="#070706"/>
      <stop offset="1" stop-color="#1d1a16"/>
    </linearGradient>
    <linearGradient id="rim" x1="180" y1="96" x2="840" y2="900" gradientUnits="userSpaceOnUse">
      <stop offset="0" stop-color="#f5f1e8" stop-opacity="0.16"/>
      <stop offset="0.48" stop-color="#f5f1e8" stop-opacity="0.04"/>
      <stop offset="1" stop-color="#000000" stop-opacity="0.4"/>
    </linearGradient>
    <filter id="shadow" x="-16%" y="-14%" width="132%" height="132%" color-interpolation-filters="sRGB">
      <feDropShadow dx="0" dy="26" stdDeviation="34" flood-color="#000000" flood-opacity="0.28"/>
    </filter>
  </defs>
  <rect width="1024" height="1024" fill="none"/>
  <rect x="126" y="126" width="772" height="772" rx="172" fill="#090908" filter="url(#shadow)"/>
  <rect x="143" y="143" width="738" height="738" rx="156" fill="none" stroke="url(#rim)" stroke-width="18"/>
  <g transform="translate(228 238)" fill="#f5f1e8">
    <rect x="0" y="0" width="30" height="548" rx="15"/>
    <rect x="104" y="0" width="30" height="548" rx="15"/>
    <rect x="208" y="0" width="30" height="548" rx="15"/>
    <rect x="312" y="0" width="30" height="548" rx="15"/>
    <rect x="554" y="0" width="30" height="548" rx="15"/>
  </g>
  <g transform="translate(640 238)" fill="#c89461">
    <rect x="21" y="0" width="9" height="9" rx="4.5"/>
    <rect x="21" y="34" width="9" height="9" rx="4.5"/>
    <rect x="21" y="68" width="9" height="9" rx="4.5"/>
    <rect x="21" y="102" width="9" height="9" rx="4.5"/>
    <rect x="21" y="136" width="9" height="9" rx="4.5"/>
    <rect x="0" y="170" width="51" height="9" rx="4.5"/>
    <rect x="21" y="204" width="9" height="9" rx="4.5"/>
    <rect x="21" y="238" width="9" height="9" rx="4.5"/>
    <rect x="0" y="272" width="51" height="9" rx="4.5"/>
    <rect x="21" y="306" width="9" height="9" rx="4.5"/>
    <rect x="21" y="340" width="9" height="9" rx="4.5"/>
    <rect x="21" y="374" width="9" height="9" rx="4.5"/>
    <rect x="0" y="408" width="51" height="9" rx="4.5"/>
    <rect x="21" y="442" width="9" height="9" rx="4.5"/>
    <rect x="21" y="476" width="9" height="9" rx="4.5"/>
    <rect x="21" y="510" width="9" height="9" rx="4.5"/>
  </g>
</svg>
